{
    "accessors" : [
        {
            "bufferView" : 0,
            "componentType" : 5123,
            "count" : 181614,
            "max" : [
                39938
            ],
            "min" : [
                0
            ],
            "type" : "SCALAR"
        },
        {
            "bufferView" : 1,
            "componentType" : 5126,
            "count" : 39939,
            "max" : [
                0.786670982837677,
                1.1945680379867554,
                1.6297520399093628
            ],
            "min" : [
                -0.7864000201225281,
                -1.194195032119751,
                -1.6292200088500977
            ],
            "type" : "VEC3"
        },
        {
            "bufferView" : 2,
            "componentType" : 5126,
            "count" : 39939,
            "max" : [
                0.999969482421875,
                0.99993896484375,
                0.999969482421875
            ],
            "min" : [
                -0.999969482421875,
                -0.999969482421875,
                -0.9998779296875
            ],
            "type" : "VEC3"
        },
        {
            "bufferView" : 3,
            "componentType" : 5126,
            "count" : 39939,
            "max" : [
                1.0,
                1.0
            ],
            "min" : [
                0.0,
                0.0
            ],
            "type" : "VEC2"
        }
    ],
    "asset" : {
        "generator" : "Khronos Blender glTF 2.0 exporter",
        "version" : "2.0"
    },
    "bufferViews" : [
        {
            "buffer" : 0,
            "byteLength" : 363228,
            "byteOffset" : 0,
            "target" : 34963
        },
        {
            "buffer" : 0,
            "byteLength" : 479268,
            "byteOffset" : 363228,
            "target" : 34962
        },
        {
            "buffer" : 0,
            "byteLength" : 479268,
            "byteOffset" : 842496,
            "target" : 34962
        },
        {
            "buffer" : 0,
            "byteLength" : 319512,
            "byteOffset" : 1321764,
            "target" : 34962
        }
    ],
    "buffers" : [
        {
            "byteLength" : 1641276,
            "uri" : "model.bin"
        }
    ],
    "meshes" : [
        {
            "name" : "Object",
            "primitives" : [
                {
                    "attributes" : {
                        "NORMAL" : 2,
                        "POSITION" : 1,
                        "TEXCOORD_0" : 3
                    },
                    "indices" : 0
                }
            ]
        }
    ],
    "nodes" : [
        {
            "mesh" : 0,
            "name" : "Object",
            "rotation" : [
                0.7071068286895752,
                0.0,
                -0.0,
                0.7071067094802856
            ]
        }
    ],
    "scene" : 0,
    "scenes" : [
        {
            "name" : "Scene",
            "nodes" : [
                0
            ]
        }
    ]
}
