{
  "accessors": [
    {
      "bufferView": 2,
      "componentType": 5126,
      "count": 3831,
      "max": [
        44.907814025878906,
        110.69435119628906,
        74.215538024902344
      ],
      "min": [
        -44.907814025878906,
        -100.74676513671875,
        2.9524707794189453
      ],
      "type": "VEC3"
    },
    {
      "bufferView": 2,
      "byteOffset": 45972,
      "componentType": 5126,
      "count": 3831,
      "max": [
        1,
        1,
        1
      ],
      "min": [
        -1,
        -1,
        -1
      ],
      "type": "VEC3"
    },
    {
      "bufferView": 3,
      "componentType": 5126,
      "count": 3831,
      "max": [
        1,
        1,
        1,
        1
      ],
      "min": [
        -1,
        -1,
        -1,
        -1
      ],
      "type": "VEC4"
    },
    {
      "bufferView": 1,
      "componentType": 5126,
      "count": 3831,
      "max": [
        0.99799996614456177,
        0.9878343939781189
      ],
      "min": [
        0.0020000000949949026,
        0.0020000000949949026
      ],
      "type": "VEC2"
    },
    {
      "bufferView": 0,
      "componentType": 5125,
      "count": 11763,
      "max": [
        3830
      ],
      "min": [
        0
      ],
      "type": "SCALAR"
    },
    {
      "bufferView": 2,
      "byteOffset": 91944,
      "componentType": 5126,
      "count": 62,
      "max": [
        36.410045623779297,
        11.713659286499023,
        71.558563232421875
      ],
      "min": [
        -36.410045623779297,
        -44.258796691894531,
        51.256645202636719
      ],
      "type": "VEC3"
    },
    {
      "bufferView": 2,
      "byteOffset": 92688,
      "componentType": 5126,
      "count": 62,
      "max": [
        0.97696846723556519,
        0.99529498815536499,
        0.64636540412902832
      ],
      "min": [
        -0.97696846723556519,
        -0.77087610960006714,
        0.096853174269199371
      ],
      "type": "VEC3"
    },
    {
      "bufferView": 3,
      "byteOffset": 61296,
      "componentType": 5126,
      "count": 62,
      "max": [
        0.81130701303482056,
        0.10392243415117264,
        0.97993725538253784,
        1
      ],
      "min": [
        -0.81131148338317871,
        -0.68617528676986694,
        -0.99529874324798584,
        1
      ],
      "type": "VEC4"
    },
    {
      "bufferView": 1,
      "byteOffset": 30648,
      "componentType": 5126,
      "count": 62,
      "max": [
        0.81006413698196411,
        0.94184261560440063
      ],
      "min": [
        0.011068874970078468,
        0.068112634122371674
      ],
      "type": "VEC2"
    },
    {
      "bufferView": 0,
      "byteOffset": 47052,
      "componentType": 5125,
      "count": 150,
      "max": [
        61
      ],
      "min": [
        0
      ],
      "type": "SCALAR"
    },
    {
      "bufferView": 2,
      "byteOffset": 93432,
      "componentType": 5126,
      "count": 4,
      "max": [
        99.796401977539062,
        148.40190124511719,
        0
      ],
      "min": [
        -99.796401977539062,
        -148.40190124511719,
        0
      ],
      "type": "VEC3"
    },
    {
      "bufferView": 2,
      "byteOffset": 93480,
      "componentType": 5126,
      "count": 4,
      "max": [
        0,
        0,
        1
      ],
      "min": [
        0,
        0,
        1
      ],
      "type": "VEC3"
    },
    {
      "bufferView": 3,
      "byteOffset": 62288,
      "componentType": 5126,
      "count": 4,
      "max": [
        1,
        0,
        0,
        1
      ],
      "min": [
        1,
        0,
        0,
        1
      ],
      "type": "VEC4"
    },
    {
      "bufferView": 1,
      "byteOffset": 31144,
      "componentType": 5126,
      "count": 4,
      "max": [
        1,
        1
      ],
      "min": [
        0,
        0
      ],
      "type": "VEC2"
    },
    {
      "bufferView": 0,
      "byteOffset": 47652,
      "componentType": 5125,
      "count": 6,
      "max": [
        3
      ],
      "min": [
        0
      ],
      "type": "SCALAR"
    }
  ],
  "asset": {
    "extras": {
      "author": "Renafox (https://sketchfab.com/kryik1023)",
      "license": "CC-BY-NC-4.0 (http://creativecommons.org/licenses/by-nc/4.0/)",
      "source": "https://sketchfab.com/models/1fae2b50fbe14d2c98296a2560a38399",
      "title": "Gmc Sierra Work Truck"
    },
    "generator": "Sketchfab-3.19.5",
    "version": "2.0"
  },
  "bufferViews": [
    {
      "buffer": 0,
      "byteLength": 47676,
      "byteOffset": 0,
      "name": "floatBufferViews",
      "target": 34963
    },
    {
      "buffer": 0,
      "byteLength": 31176,
      "byteOffset": 47676,
      "byteStride": 8,
      "name": "floatBufferViews",
      "target": 34962
    },
    {
      "buffer": 0,
      "byteLength": 93528,
      "byteOffset": 78852,
      "byteStride": 12,
      "name": "floatBufferViews",
      "target": 34962
    },
    {
      "buffer": 0,
      "byteLength": 62352,
      "byteOffset": 172380,
      "byteStride": 16,
      "name": "floatBufferViews",
      "target": 34962
    }
  ],
  "buffers": [
    {
      "byteLength": 234732,
      "uri": "scene.bin"
    }
  ],
  "images": [
    {
      "uri": "textures/Material_33_emissive.png"
    },
    {
      "uri": "textures/Material_33_metallicRoughness.png"
    },
    {
      "uri": "textures/Material_33_normal.png"
    },
    {
      "uri": "textures/Material_33_baseColor.png"
    },
    {
      "uri": "textures/Material_34_baseColor.png"
    },
    {
      "uri": "textures/Material_34_metallicRoughness.png"
    },
    {
      "uri": "textures/Material_34_normal.png"
    },
    {
      "uri": "textures/RootNode_baseColor.png"
    }
  ],
  "materials": [
    {
      "alphaMode": "BLEND",
      "doubleSided": true,
      "name": "RootNode",
      "pbrMetallicRoughness": {
        "baseColorFactor": [
          1,
          1,
          1,
          1
        ],
        "baseColorTexture": {
          "index": 7,
          "texCoord": 0
        },
        "metallicFactor": 0,
        "roughnessFactor": 1
      }
    },
    {
      "doubleSided": true,
      "emissiveFactor": [
        1,
        1,
        1
      ],
      "emissiveTexture": {
        "index": 0,
        "texCoord": 0
      },
      "name": "Material_33",
      "normalTexture": {
        "index": 2,
        "scale": 1,
        "texCoord": 0
      },
      "occlusionTexture": {
        "index": 1,
        "strength": 1,
        "texCoord": 0
      },
      "pbrMetallicRoughness": {
        "baseColorFactor": [
          1,
          1,
          1,
          1
        ],
        "baseColorTexture": {
          "index": 3,
          "texCoord": 0
        },
        "metallicFactor": 1,
        "metallicRoughnessTexture": {
          "index": 1,
          "texCoord": 0
        },
        "roughnessFactor": 1
      }
    },
    {
      "alphaMode": "BLEND",
      "doubleSided": true,
      "name": "Material_34",
      "normalTexture": {
        "index": 6,
        "scale": 1,
        "texCoord": 0
      },
      "occlusionTexture": {
        "index": 5,
        "strength": 1,
        "texCoord": 0
      },
      "pbrMetallicRoughness": {
        "baseColorFactor": [
          1,
          1,
          1,
          1
        ],
        "baseColorTexture": {
          "index": 4,
          "texCoord": 0
        },
        "metallicFactor": 1,
        "metallicRoughnessTexture": {
          "index": 5,
          "texCoord": 0
        },
        "roughnessFactor": 1
      }
    }
  ],
  "meshes": [
    {
      "name": "Object001_Material #33_0",
      "primitives": [
        {
          "attributes": {
            "NORMAL": 1,
            "POSITION": 0,
            "TANGENT": 2,
            "TEXCOORD_0": 3
          },
          "indices": 4,
          "material": 1,
          "mode": 4
        }
      ]
    },
    {
      "name": "Object002_Material #34_0",
      "primitives": [
        {
          "attributes": {
            "NORMAL": 6,
            "POSITION": 5,
            "TANGENT": 7,
            "TEXCOORD_0": 8
          },
          "indices": 9,
          "material": 2,
          "mode": 4
        }
      ]
    },
    {
      "name": "Plane001__0",
      "primitives": [
        {
          "attributes": {
            "NORMAL": 11,
            "POSITION": 10,
            "TANGENT": 12,
            "TEXCOORD_0": 13
          },
          "indices": 14,
          "material": 0,
          "mode": 4
        }
      ]
    }
  ],
  "nodes": [
    {
      "children": [
        1
      ],
      "name": "RootNode (gltf orientation matrix)",
      "rotation": [
        -0.70710678118654746,
        -0,
        -0,
        0.70710678118654757
      ]
    },
    {
      "children": [
        2
      ],
      "name": "RootNode (model correction matrix)"
    },
    {
      "children": [
        3
      ],
      "matrix": [
        1,
        0,
        0,
        0,
        0,
        0,
        1,
        0,
        0,
        -1,
        0,
        0,
        0,
        0,
        0,
        1
      ],
      "name": "gmc.FBX"
    },
    {
      "children": [
        4,
        6,
        8
      ],
      "name": "RootNode"
    },
    {
      "children": [
        5
      ],
      "matrix": [
        1,
        0,
        0,
        0,
        0,
        2.2204460492503131e-16,
        -1,
        0,
        0,
        1,
        2.2204460492503131e-16,
        0,
        0,
        0,
        0,
        1
      ],
      "name": "Object001"
    },
    {
      "mesh": 0,
      "name": "Object001_Material #33_0"
    },
    {
      "children": [
        7
      ],
      "matrix": [
        1,
        0,
        0,
        0,
        0,
        2.2204460492503131e-16,
        -1,
        0,
        0,
        1,
        2.2204460492503131e-16,
        0,
        0,
        0,
        0,
        1
      ],
      "name": "Object002"
    },
    {
      "mesh": 1,
      "name": "Object002_Material #34_0"
    },
    {
      "children": [
        9
      ],
      "matrix": [
        0.92558372020721436,
        0,
        0,
        0,
        0,
        2.2204460492503131e-16,
        -1,
        0,
        0,
        1,
        2.2204460492503131e-16,
        0,
        0.53312301635742188,
        2.7781581878662109,
        -9.283050537109375,
        1
      ],
      "name": "Plane001"
    },
    {
      "mesh": 2,
      "name": "Plane001__0"
    }
  ],
  "samplers": [
    {
      "magFilter": 9729,
      "minFilter": 9987,
      "wrapS": 10497,
      "wrapT": 10497
    }
  ],
  "scene": 0,
  "scenes": [
    {
      "name": "OSG_Scene",
      "nodes": [
        0
      ]
    }
  ],
  "textures": [
    {
      "sampler": 0,
      "source": 0
    },
    {
      "sampler": 0,
      "source": 1
    },
    {
      "sampler": 0,
      "source": 2
    },
    {
      "sampler": 0,
      "source": 3
    },
    {
      "sampler": 0,
      "source": 4
    },
    {
      "sampler": 0,
      "source": 5
    },
    {
      "sampler": 0,
      "source": 6
    },
    {
      "sampler": 0,
      "source": 7
    }
  ]
}

