{
  "accessors": [
    {
      "bufferView": 2,
      "componentType": 5126,
      "count": 3875,
      "max": [
        4.7376499176025391,
        5.5803499221801758,
        4.0948801040649414
      ],
      "min": [
        -6.9967598915100098,
        -4.9664502143859863,
        -2.4301199913024902
      ],
      "type": "VEC3"
    },
    {
      "bufferView": 2,
      "byteOffset": 46500,
      "componentType": 5126,
      "count": 3875,
      "max": [
        0.99980324506759644,
        1,
        1
      ],
      "min": [
        -0.99995702505111694,
        -0.99999350309371948,
        -1
      ],
      "type": "VEC3"
    },
    {
      "bufferView": 3,
      "componentType": 5126,
      "count": 3875,
      "max": [
        0.99993747472763062,
        0.9997481107711792,
        0.99819689989089966,
        1
      ],
      "min": [
        -0.99991327524185181,
        -1,
        -0.99970191717147827,
        -1
      ],
      "type": "VEC4"
    },
    {
      "bufferView": 1,
      "componentType": 5126,
      "count": 3875,
      "max": [
        0.99870002269744873,
        0.99985998868942261
      ],
      "min": [
        0,
        0
      ],
      "type": "VEC2"
    },
    {
      "bufferView": 0,
      "componentType": 5125,
      "count": 13380,
      "max": [
        3874
      ],
      "min": [
        0
      ],
      "type": "SCALAR"
    },
    {
      "bufferView": 2,
      "byteOffset": 93000,
      "componentType": 5126,
      "count": 24,
      "max": [
        7.8681697845458984,
        7.8681697845458984,
        7.8681697845458984
      ],
      "min": [
        -7.8681697845458984,
        -7.8681697845458984,
        -7.8681697845458984
      ],
      "type": "VEC3"
    },
    {
      "bufferView": 2,
      "byteOffset": 93288,
      "componentType": 5126,
      "count": 24,
      "max": [
        1,
        1,
        1
      ],
      "min": [
        -1,
        -1,
        -1
      ],
      "type": "VEC3"
    },
    {
      "bufferView": 3,
      "byteOffset": 62000,
      "componentType": 5126,
      "count": 24,
      "max": [
        1,
        1,
        1,
        -1
      ],
      "min": [
        0,
        -1,
        0,
        -1
      ],
      "type": "VEC4"
    },
    {
      "bufferView": 1,
      "byteOffset": 31000,
      "componentType": 5126,
      "count": 24,
      "max": [
        0.99586999416351318,
        0.99586999416351318
      ],
      "min": [
        0.0041299997828900814,
        0.0041299997828900814
      ],
      "type": "VEC2"
    },
    {
      "bufferView": 0,
      "byteOffset": 53520,
      "componentType": 5125,
      "count": 36,
      "max": [
        23
      ],
      "min": [
        0
      ],
      "type": "SCALAR"
    }
  ],
  "asset": {
    "generator": "Sketchfab (OSG glTF plugin)",
    "version": "2.0"
  },
  "bufferViews": [
    {
      "buffer": 0,
      "byteLength": 53664,
      "byteOffset": 0,
      "name": "floatBufferViews",
      "target": 34963
    },
    {
      "buffer": 0,
      "byteLength": 31192,
      "byteOffset": 53664,
      "byteStride": 8,
      "name": "floatBufferViews",
      "target": 34962
    },
    {
      "buffer": 0,
      "byteLength": 93576,
      "byteOffset": 84856,
      "byteStride": 12,
      "name": "floatBufferViews",
      "target": 34962
    },
    {
      "buffer": 0,
      "byteLength": 62384,
      "byteOffset": 178432,
      "byteStride": 16,
      "name": "floatBufferViews",
      "target": 34962
    }
  ],
  "buffers": [
    {
      "byteLength": 240816,
      "uri": "scene.bin"
    }
  ],
  "extensionsRequired": [
    "KHR_materials_pbrSpecularGlossiness"
  ],
  "extensionsUsed": [
    "KHR_materials_pbrSpecularGlossiness"
  ],
  "images": [
    {
      "uri": "textures/house_diffuse.jpeg"
    },
    {
      "uri": "textures/skybox_diffuse.jpeg"
    }
  ],
  "materials": [
    {
      "doubleSided": true,
      "extensions": {
        "KHR_materials_pbrSpecularGlossiness": {
          "diffuseFactor": [
            1,
            1,
            1,
            1
          ],
          "diffuseTexture": {
            "index": 1,
            "texCoord": 0
          },
          "glossinessFactor": 0,
          "specularFactor": [
            0,
            0,
            0
          ]
        }
      },
      "name": "skybox"
    },
    {
      "doubleSided": true,
      "extensions": {
        "KHR_materials_pbrSpecularGlossiness": {
          "diffuseFactor": [
            1,
            1,
            1,
            1
          ],
          "diffuseTexture": {
            "index": 0,
            "texCoord": 0
          },
          "glossinessFactor": 0,
          "specularFactor": [
            0,
            0,
            0
          ]
        }
      },
      "name": "house"
    }
  ],
  "meshes": [
    {
      "name": "house",
      "primitives": [
        {
          "attributes": {
            "NORMAL": 1,
            "POSITION": 0,
            "TANGENT": 2,
            "TEXCOORD_0": 3
          },
          "indices": 4,
          "material": 1,
          "mode": 4
        }
      ]
    },
    {
      "name": "skybox",
      "primitives": [
        {
          "attributes": {
            "NORMAL": 6,
            "POSITION": 5,
            "TANGENT": 7,
            "TEXCOORD_0": 8
          },
          "indices": 9,
          "material": 0,
          "mode": 4
        }
      ]
    }
  ],
  "nodes": [
    {
      "children": [
        1
      ],
      "name": "RootNode (gltf orientation matrix)",
      "rotation": [
        -0.70710678118654746,
        -0,
        -0,
        0.70710678118654757
      ]
    },
    {
      "children": [
        2
      ],
      "name": "RootNode (model correction matrix)"
    },
    {
      "children": [
        3,
        6
      ],
      "name": "Root"
    },
    {
      "children": [
        5
      ],
      "name": "house"
    },
    {
      "mesh": 0,
      "name": "house"
    },
    {
      "children": [
        4
      ],
      "name": "Geode"
    },
    {
      "children": [
        8
      ],
      "matrix": [
        4.21563,
        0,
        0,
        0,
        0,
        4.21563,
        0,
        0,
        0,
        0,
        4.21563,
        0,
        0,
        0,
        17.467919999999999,
        1
      ],
      "name": "skybox"
    },
    {
      "mesh": 1,
      "name": "skybox"
    },
    {
      "children": [
        7
      ],
      "name": "Geode"
    }
  ],
  "samplers": [
    {
      "magFilter": 9729,
      "minFilter": 9987,
      "wrapS": 10497,
      "wrapT": 10497
    }
  ],
  "scene": 0,
  "scenes": [
    {
      "name": "OSG_Scene",
      "nodes": [
        0
      ]
    }
  ],
  "textures": [
    {
      "sampler": 0,
      "source": 0
    },
    {
      "sampler": 0,
      "source": 1
    }
  ]
}

