{
    "accessors" : [
        {
            "bufferView" : 0,
            "componentType" : 5123,
            "count" : 10071,
            "max" : [
                2486
            ],
            "min" : [
                0
            ],
            "type" : "SCALAR"
        },
        {
            "bufferView" : 1,
            "componentType" : 5126,
            "count" : 2487,
            "max" : [
                0.6151880025863647,
                0.2339009940624237,
                0.00012892199447378516
            ],
            "min" : [
                -1.2360399961471558,
                -0.26256000995635986,
                -2.497450113296509
            ],
            "type" : "VEC3"
        },
        {
            "bufferView" : 2,
            "componentType" : 5126,
            "count" : 2487,
            "max" : [
                0.999969482421875,
                0.9998779296875,
                0.999969482421875
            ],
            "min" : [
                -0.999969482421875,
                -0.9998779296875,
                -0.99951171875
            ],
            "type" : "VEC3"
        }
    ],
    "asset" : {
        "generator" : "Khronos Blender glTF 2.0 exporter",
        "version" : "2.0"
    },
    "bufferViews" : [
        {
            "buffer" : 0,
            "byteLength" : 20142,
            "byteOffset" : 0,
            "target" : 34963
        },
        {
            "buffer" : 0,
            "byteLength" : 29844,
            "byteOffset" : 20144,
            "target" : 34962
        },
        {
            "buffer" : 0,
            "byteLength" : 29844,
            "byteOffset" : 49988,
            "target" : 34962
        }
    ],
    "buffers" : [
        {
            "byteLength" : 79832,
            "uri" : "deer1.bin"
        }
    ],
    "meshes" : [
        {
            "name" : "deer",
            "primitives" : [
                {
                    "attributes" : {
                        "NORMAL" : 2,
                        "POSITION" : 1
                    },
                    "indices" : 0
                }
            ]
        }
    ],
    "nodes" : [
        {
            "mesh" : 0,
            "name" : "deer",
            "rotation" : [
                0.7071068286895752,
                0.0,
                -0.0,
                0.7071067094802856
            ]
        }
    ],
    "scene" : 0,
    "scenes" : [
        {
            "name" : "Scene",
            "nodes" : [
                0
            ]
        }
    ]
}
