{
  "accessors": [
    {
      "bufferView": 2,
      "componentType": 5126,
      "count": 964,
      "max": [
        49.463470458984375,
        49.463470458984375,
        45.701889038085938
      ],
      "min": [
        -49.463470458984375,
        -49.463470458984375,
        -53.225051879882812
      ],
      "type": "VEC3"
    },
    {
      "bufferView": 2,
      "byteOffset": 11568,
      "componentType": 5126,
      "count": 964,
      "max": [
        1,
        1,
        1
      ],
      "min": [
        -1,
        -1,
        -1
      ],
      "type": "VEC3"
    },
    {
      "bufferView": 3,
      "componentType": 5126,
      "count": 964,
      "max": [
        0.99900484085083008,
        0.99901634454727173,
        0.99998307228088379,
        1
      ],
      "min": [
        -0.99901634454727173,
        -0.99900466203689575,
        -0.36615833640098572,
        1
      ],
      "type": "VEC4"
    },
    {
      "bufferView": 1,
      "componentType": 5126,
      "count": 964,
      "max": [
        0.98721998929977417,
        0.98671001195907593
      ],
      "min": [
        0.006920000072568655,
        0.0050300001166760921
      ],
      "type": "VEC2"
    },
    {
      "bufferView": 0,
      "componentType": 5125,
      "count": 5184,
      "max": [
        963
      ],
      "min": [
        0
      ],
      "type": "SCALAR"
    },
    {
      "bufferView": 2,
      "byteOffset": 23136,
      "componentType": 5126,
      "count": 32,
      "max": [
        6.6661100387573242,
        7.5334501266479492,
        -3.7597899436950684
      ],
      "min": [
        -7.9134302139282227,
        -5.7913098335266113,
        -3.7670900821685791
      ],
      "type": "VEC3"
    },
    {
      "bufferView": 2,
      "byteOffset": 23520,
      "componentType": 5126,
      "count": 32,
      "max": [
        0.0064899921417236328,
        -0,
        -0.99997878074645996
      ],
      "min": [
        -0.00078999984543770552,
        -0.0006399969570338726,
        -1
      ],
      "type": "VEC3"
    },
    {
      "bufferView": 3,
      "byteOffset": 15424,
      "componentType": 5126,
      "count": 32,
      "max": [
        0.98998332023620605,
        0.16277229785919189,
        0.0063531883060932159,
        1
      ],
      "min": [
        0.9866594672203064,
        0.14104156196117401,
        -0.00080218666698783636,
        1
      ],
      "type": "VEC4"
    },
    {
      "bufferView": 1,
      "byteOffset": 7712,
      "componentType": 5126,
      "count": 32,
      "max": [
        0.71641999483108521,
        0.042879998683929443
      ],
      "min": [
        0.7054399847984314,
        0.032850001007318497
      ],
      "type": "VEC2"
    },
    {
      "bufferView": 0,
      "byteOffset": 20736,
      "componentType": 5125,
      "count": 66,
      "max": [
        31
      ],
      "min": [
        0
      ],
      "type": "SCALAR"
    },
    {
      "bufferView": 2,
      "byteOffset": 23904,
      "componentType": 5126,
      "count": 6067,
      "max": [
        6.6661100387573242,
        7.5334501266479492,
        6.950009822845459
      ],
      "min": [
        -8.1741600036621094,
        -5.7913098335266113,
        -3.7986400127410889
      ],
      "type": "VEC3"
    },
    {
      "bufferView": 2,
      "byteOffset": 96708,
      "componentType": 5126,
      "count": 6067,
      "max": [
        1,
        1,
        1
      ],
      "min": [
        -1,
        -1,
        -1
      ],
      "type": "VEC3"
    },
    {
      "bufferView": 3,
      "byteOffset": 15936,
      "componentType": 5126,
      "count": 6067,
      "max": [
        0.99998730421066284,
        1,
        0.99999439716339111,
        1
      ],
      "min": [
        -0.99998682737350464,
        -1,
        -1,
        -1
      ],
      "type": "VEC4"
    },
    {
      "bufferView": 1,
      "byteOffset": 7968,
      "componentType": 5126,
      "count": 6067,
      "max": [
        0.99937999248504639,
        1.0000699758529663
      ],
      "min": [
        0.00082000001566484571,
        0.00082000001566484571
      ],
      "type": "VEC2"
    },
    {
      "bufferView": 0,
      "byteOffset": 21000,
      "componentType": 5125,
      "count": 22437,
      "max": [
        6066
      ],
      "min": [
        0
      ],
      "type": "SCALAR"
    }
  ],
  "asset": {
    "generator": "Sketchfab (OSG glTF plugin)",
    "version": "2.0"
  },
  "bufferViews": [
    {
      "buffer": 0,
      "byteLength": 110748,
      "byteOffset": 0,
      "name": "floatBufferViews",
      "target": 34963
    },
    {
      "buffer": 0,
      "byteLength": 56504,
      "byteOffset": 110748,
      "byteStride": 8,
      "name": "floatBufferViews",
      "target": 34962
    },
    {
      "buffer": 0,
      "byteLength": 169512,
      "byteOffset": 167252,
      "byteStride": 12,
      "name": "floatBufferViews",
      "target": 34962
    },
    {
      "buffer": 0,
      "byteLength": 113008,
      "byteOffset": 336764,
      "byteStride": 16,
      "name": "floatBufferViews",
      "target": 34962
    }
  ],
  "buffers": [
    {
      "byteLength": 449772,
      "uri": "scene.bin"
    }
  ],
  "extensionsRequired": [
    "KHR_materials_pbrSpecularGlossiness"
  ],
  "extensionsUsed": [
    "KHR_materials_pbrSpecularGlossiness"
  ],
  "images": [
    {
      "uri": "textures/houses_diffuse.jpg"
    },
    {
      "uri": "textures/sky_diffuse.jpg"
    }
  ],
  "materials": [
    {
      "doubleSided": false,
      "extensions": {
        "KHR_materials_pbrSpecularGlossiness": {
          "diffuseFactor": [
            1,
            1,
            1,
            1
          ],
          "diffuseTexture": {
            "index": 0,
            "texCoord": 0
          },
          "glossinessFactor": 0,
          "specularFactor": [
            0,
            0,
            0
          ]
        }
      },
      "name": "houses"
    },
    {
      "doubleSided": false,
      "extensions": {
        "KHR_materials_pbrSpecularGlossiness": {
          "diffuseFactor": [
            1,
            1,
            1,
            1
          ],
          "diffuseTexture": {
            "index": 1,
            "texCoord": 0
          },
          "glossinessFactor": 0,
          "specularFactor": [
            0,
            0,
            0
          ]
        }
      },
      "name": "sky"
    }
  ],
  "meshes": [
    {
      "name": "sky",
      "primitives": [
        {
          "attributes": {
            "NORMAL": 1,
            "POSITION": 0,
            "TANGENT": 2,
            "TEXCOORD_0": 3
          },
          "indices": 4,
          "material": 1,
          "mode": 4
        }
      ]
    },
    {
      "name": "Circle",
      "primitives": [
        {
          "attributes": {
            "NORMAL": 6,
            "POSITION": 5,
            "TANGENT": 7,
            "TEXCOORD_0": 8
          },
          "indices": 9,
          "material": 0,
          "mode": 4
        }
      ]
    },
    {
      "name": "houses",
      "primitives": [
        {
          "attributes": {
            "NORMAL": 11,
            "POSITION": 10,
            "TANGENT": 12,
            "TEXCOORD_0": 13
          },
          "indices": 14,
          "material": 0,
          "mode": 4
        }
      ]
    }
  ],
  "nodes": [
    {
      "children": [
        1
      ],
      "name": "RootNode (gltf orientation matrix)",
      "rotation": [
        -0.70710678118654746,
        -0,
        -0,
        0.70710678118654757
      ]
    },
    {
      "children": [
        2
      ],
      "name": "RootNode (model correction matrix)"
    },
    {
      "children": [
        3,
        6,
        9
      ],
      "name": "Root"
    },
    {
      "children": [
        5
      ],
      "name": "sky"
    },
    {
      "mesh": 0,
      "name": "sky"
    },
    {
      "children": [
        4
      ],
      "name": "Geode"
    },
    {
      "children": [
        8
      ],
      "matrix": [
        1,
        0,
        0,
        0,
        0,
        1,
        0,
        0,
        0,
        0,
        1,
        0,
        0,
        0,
        -0.010000000000000002,
        1
      ],
      "name": "Circle"
    },
    {
      "mesh": 1,
      "name": "Circle"
    },
    {
      "children": [
        7
      ],
      "name": "Geode"
    },
    {
      "children": [
        11
      ],
      "name": "houses"
    },
    {
      "mesh": 2,
      "name": "houses"
    },
    {
      "children": [
        10
      ],
      "name": "Geode"
    }
  ],
  "samplers": [
    {
      "magFilter": 9729,
      "minFilter": 9987,
      "wrapS": 10497,
      "wrapT": 10497
    }
  ],
  "scene": 0,
  "scenes": [
    {
      "name": "OSG_Scene",
      "nodes": [
        0
      ]
    }
  ],
  "textures": [
    {
      "sampler": 0,
      "source": 0
    },
    {
      "sampler": 0,
      "source": 1
    }
  ]
}

