{
  "accessors": [
    {
      "bufferView": 1,
      "componentType": 5126,
      "count": 65532,
      "max": [
        2.7449219226837158,
        -13.52372932434082,
        7.3752651214599609
      ],
      "min": [
        0.053869999945163727,
        -15.90739917755127,
        0.06312599778175354
      ],
      "type": "VEC3"
    },
    {
      "bufferView": 1,
      "byteOffset": 786384,
      "componentType": 5126,
      "count": 65532,
      "max": [
        0.99999076128005981,
        0.99999189376831055,
        0.99998724460601807
      ],
      "min": [
        -0.99998140335083008,
        -0.99999207258224487,
        -0.9999995231628418
      ],
      "type": "VEC3"
    },
    {
      "bufferView": 2,
      "componentType": 5126,
      "count": 65532,
      "max": [
        0.58823502063751221,
        0.58823502063751221,
        0.58823502063751221,
        1
      ],
      "min": [
        0.58823502063751221,
        0.58823502063751221,
        0.58823502063751221,
        1
      ],
      "type": "VEC4"
    },
    {
      "bufferView": 0,
      "componentType": 5125,
      "count": 352206,
      "max": [
        65531
      ],
      "min": [
        0
      ],
      "type": "SCALAR"
    },
    {
      "bufferView": 1,
      "byteOffset": 1572768,
      "componentType": 5126,
      "count": 65532,
      "max": [
        2.7382299900054932,
        -13.486145973205566,
        7.3684501647949219
      ],
      "min": [
        -0.289000004529953,
        -15.912068367004395,
        0.086327999830245972
      ],
      "type": "VEC3"
    },
    {
      "bufferView": 1,
      "byteOffset": 2359152,
      "componentType": 5126,
      "count": 65532,
      "max": [
        0.99990469217300415,
        0.99999189376831055,
        0.99897122383117676
      ],
      "min": [
        -1,
        -0.99988240003585815,
        -0.99999886751174927
      ],
      "type": "VEC3"
    },
    {
      "bufferView": 2,
      "byteOffset": 1048512,
      "componentType": 5126,
      "count": 65532,
      "max": [
        0.58823502063751221,
        0.58823502063751221,
        0.58823502063751221,
        1
      ],
      "min": [
        0.58823502063751221,
        0.58823502063751221,
        0.58823502063751221,
        1
      ],
      "type": "VEC4"
    },
    {
      "bufferView": 0,
      "byteOffset": 1408824,
      "componentType": 5125,
      "count": 337389,
      "max": [
        65531
      ],
      "min": [
        0
      ],
      "type": "SCALAR"
    },
    {
      "bufferView": 1,
      "byteOffset": 3145536,
      "componentType": 5126,
      "count": 65532,
      "max": [
        2.744333028793335,
        -13.482158660888672,
        7.3709502220153809
      ],
      "min": [
        0.19660000503063202,
        -15.92411994934082,
        0.07781500369310379
      ],
      "type": "VEC3"
    },
    {
      "bufferView": 1,
      "byteOffset": 3931920,
      "componentType": 5126,
      "count": 65532,
      "max": [
        0.99999523162841797,
        0.9999726414680481,
        0.99999982118606567
      ],
      "min": [
        -0.99997389316558838,
        -0.99999457597732544,
        -0.99999642372131348
      ],
      "type": "VEC3"
    },
    {
      "bufferView": 2,
      "byteOffset": 2097024,
      "componentType": 5126,
      "count": 65532,
      "max": [
        0.58823502063751221,
        0.58823502063751221,
        0.58823502063751221,
        1
      ],
      "min": [
        0.58823502063751221,
        0.58823502063751221,
        0.58823502063751221,
        1
      ],
      "type": "VEC4"
    },
    {
      "bufferView": 0,
      "byteOffset": 2758380,
      "componentType": 5125,
      "count": 343737,
      "max": [
        65531
      ],
      "min": [
        0
      ],
      "type": "SCALAR"
    },
    {
      "bufferView": 1,
      "byteOffset": 4718304,
      "componentType": 5126,
      "count": 15421,
      "max": [
        2.5143129825592041,
        -13.48256778717041,
        7.364081859588623
      ],
      "min": [
        -0.28810200095176697,
        -15.534743309020996,
        0.087443001568317413
      ],
      "type": "VEC3"
    },
    {
      "bufferView": 1,
      "byteOffset": 4903356,
      "componentType": 5126,
      "count": 15421,
      "max": [
        0.99743527173995972,
        0.99988466501235962,
        0.99992185831069946
      ],
      "min": [
        -0.99968743324279785,
        -0.99974805116653442,
        -0.99999475479125977
      ],
      "type": "VEC3"
    },
    {
      "bufferView": 2,
      "byteOffset": 3145536,
      "componentType": 5126,
      "count": 15421,
      "max": [
        0.58823502063751221,
        0.58823502063751221,
        0.58823502063751221,
        1
      ],
      "min": [
        0.58823502063751221,
        0.58823502063751221,
        0.58823502063751221,
        1
      ],
      "type": "VEC4"
    },
    {
      "bufferView": 0,
      "byteOffset": 4133328,
      "componentType": 5125,
      "count": 64704,
      "max": [
        15420
      ],
      "min": [
        0
      ],
      "type": "SCALAR"
    }
  ],
  "asset": {
    "generator": "Sketchfab (OSG glTF plugin)",
    "version": "2.0"
  },
  "bufferViews": [
    {
      "buffer": 0,
      "byteLength": 4392144,
      "byteOffset": 0,
      "name": "ScalarBufferView",
      "target": 34963
    },
    {
      "buffer": 0,
      "byteLength": 5088408,
      "byteOffset": 4392144,
      "byteStride": 12,
      "name": "Vec4BufferView",
      "target": 34962
    },
    {
      "buffer": 0,
      "byteLength": 3392272,
      "byteOffset": 9480552,
      "byteStride": 16,
      "name": "MatrixBufferView",
      "target": 34962
    }
  ],
  "buffers": [
    {
      "byteLength": 12872824,
      "uri": "scene.bin"
    }
  ],
  "extensionsRequired": [
    "KHR_materials_pbrSpecularGlossiness"
  ],
  "extensionsUsed": [
    "KHR_materials_pbrSpecularGlossiness"
  ],
  "materials": [
    {
      "doubleSided": true,
      "emissiveFactor": [
        0,
        0,
        0
      ],
      "extensions": {
        "KHR_materials_pbrSpecularGlossiness": {
          "diffuseFactor": [
            0.5,
            0.5,
            0.5,
            1
          ],
          "glossinessFactor": 0,
          "specularFactor": [
            0,
            0,
            0
          ]
        }
      },
      "name": "Scene - Root",
      "occlusionFactor": 1
    }
  ],
  "meshes": [
    {
      "primitives": [
        {
          "attributes": {
            "COLOR_0": 2,
            "NORMAL": 1,
            "POSITION": 0
          },
          "indices": 3,
          "material": 0,
          "mode": 4
        },
        {
          "attributes": {
            "COLOR_0": 6,
            "NORMAL": 5,
            "POSITION": 4
          },
          "indices": 7,
          "material": 0,
          "mode": 4
        },
        {
          "attributes": {
            "COLOR_0": 10,
            "NORMAL": 9,
            "POSITION": 8
          },
          "indices": 11,
          "material": 0,
          "mode": 4
        },
        {
          "attributes": {
            "COLOR_0": 14,
            "NORMAL": 13,
            "POSITION": 12
          },
          "indices": 15,
          "material": 0,
          "mode": 4
        }
      ]
    }
  ],
  "nodes": [
    {
      "children": [
        1
      ],
      "name": "RootNode (gltf orientation matrix)",
      "rotation": [
        -0.70710678118654746,
        -0,
        -0,
        0.70710678118654757
      ]
    },
    {
      "children": [
        2
      ],
      "name": "RootNode (model correction matrix)"
    },
    {
      "children": [
        3
      ],
      "name": "b56becd5ff494f408227f635b1929f0f.obj.cleaner"
    },
    {
      "mesh": 0,
      "name": ""
    }
  ],
  "scene": 0,
  "scenes": [
    {
      "name": "OSG_Scene",
      "nodes": [
        0
      ]
    }
  ]
}

